<mxfile host="app.diagrams.net" modified="2020-09-15T02:00:44.595Z" agent="5.0 (X11)" etag="ZVygPk6KIA3zyswJxZD2" version="13.7.1" type="github">
  <diagram name="Page-1" id="edf60f1a-56cd-e834-aa8a-f176f3a09ee4">
    <mxGraphModel dx="1368" dy="738" grid="1" gridSize="10" guides="1" tooltips="1" connect="1" arrows="1" fold="1" page="1" pageScale="1" pageWidth="1100" pageHeight="850" background="#ffffff" math="0" shadow="0" extFonts="Architects Daughter^https://fonts.googleapis.com/css?family=Architects+Daughter">
      <root>
        <mxCell id="0" />
        <mxCell id="1" parent="0" />
        <mxCell id="BODJYrUjNct6-EuI8a4u-2" value="&lt;font style=&quot;font-size: 17px&quot;&gt;Probability and Statistics&lt;/font&gt;" style="rounded=1;whiteSpace=wrap;html=1;fillColor=#f5f5f5;strokeColor=#666666;gradientDirection=east;shadow=0;sketch=1;glass=0;fontFamily=Architects Daughter;FType=g;fontColor=#333333;" parent="1" vertex="1">
          <mxGeometry x="87.5" y="110" width="125" height="50" as="geometry" />
        </mxCell>
        <UserObject label="&lt;font face=&quot;Architects Daughter&quot; style=&quot;font-size: 20px;&quot;&gt;Maths&lt;/font&gt;" link="https://www.google.com/search?q=Maths" id="BODJYrUjNct6-EuI8a4u-5">
          <mxCell style="shape=document;whiteSpace=wrap;html=1;boundedLbl=1;rounded=1;shadow=0;glass=0;sketch=1;fontFamily=Helvetica;fontSize=20;fillColor=#b1ddf0;strokeColor=#10739e;size=0.4;" parent="1" vertex="1">
            <mxGeometry x="80" y="40" width="140" height="50" as="geometry" />
          </mxCell>
        </UserObject>
        <mxCell id="BODJYrUjNct6-EuI8a4u-6" value="&lt;font data-font-src=&quot;https://fonts.googleapis.com/css?family=Architects+Daughter&quot; face=&quot;Architects Daughter&quot;&gt;Programming&lt;/font&gt;" style="shape=document;whiteSpace=wrap;html=1;boundedLbl=1;rounded=1;shadow=0;glass=0;sketch=1;fontFamily=Helvetica;fillColor=#b1ddf0;strokeColor=#10739e;fontSize=20;" parent="1" vertex="1">
          <mxGeometry x="302.5" y="40" width="140" height="50" as="geometry" />
        </mxCell>
        <mxCell id="BODJYrUjNct6-EuI8a4u-7" value="&lt;font style=&quot;font-size: 17px&quot;&gt;Linear &lt;br&gt;Algebra&lt;/font&gt;" style="rounded=1;whiteSpace=wrap;html=1;fillColor=#f5f5f5;strokeColor=#666666;gradientDirection=east;shadow=0;sketch=1;glass=0;fontFamily=Architects Daughter;FType=g;fontColor=#333333;" parent="1" vertex="1">
          <mxGeometry x="87.5" y="170" width="125" height="50" as="geometry" />
        </mxCell>
        <mxCell id="BODJYrUjNct6-EuI8a4u-18" style="edgeStyle=orthogonalEdgeStyle;rounded=0;orthogonalLoop=1;jettySize=auto;html=1;exitX=1;exitY=0.5;exitDx=0;exitDy=0;entryX=0;entryY=0.5;entryDx=0;entryDy=0;fontFamily=Helvetica;fontSize=15;strokeWidth=2;sketch=1;" parent="1" source="BODJYrUjNct6-EuI8a4u-11" target="BODJYrUjNct6-EuI8a4u-12" edge="1">
          <mxGeometry relative="1" as="geometry" />
        </mxCell>
        <mxCell id="BODJYrUjNct6-EuI8a4u-35" style="edgeStyle=orthogonalEdgeStyle;rounded=0;sketch=1;orthogonalLoop=1;jettySize=auto;html=1;exitX=0.5;exitY=1;exitDx=0;exitDy=0;entryX=0.5;entryY=0;entryDx=0;entryDy=0;strokeWidth=2;fontFamily=Helvetica;fontSize=15;" parent="1" source="BODJYrUjNct6-EuI8a4u-11" target="BODJYrUjNct6-EuI8a4u-34" edge="1">
          <mxGeometry relative="1" as="geometry" />
        </mxCell>
        <mxCell id="BODJYrUjNct6-EuI8a4u-11" value="&lt;font style=&quot;font-size: 17px&quot;&gt;Neural Network Basics&lt;/font&gt;" style="rounded=1;whiteSpace=wrap;html=1;fillColor=#f5f5f5;strokeColor=#666666;gradientDirection=east;shadow=0;sketch=1;glass=0;fontFamily=Architects Daughter;FType=g;fontColor=#333333;" parent="1" vertex="1">
          <mxGeometry x="295" y="177" width="140" height="50" as="geometry" />
        </mxCell>
        <mxCell id="BODJYrUjNct6-EuI8a4u-37" style="edgeStyle=orthogonalEdgeStyle;rounded=0;sketch=1;orthogonalLoop=1;jettySize=auto;html=1;exitX=1;exitY=0.25;exitDx=0;exitDy=0;entryX=0;entryY=0.25;entryDx=0;entryDy=0;strokeWidth=2;fontFamily=Helvetica;fontSize=15;" parent="1" source="BODJYrUjNct6-EuI8a4u-12" target="BODJYrUjNct6-EuI8a4u-17" edge="1">
          <mxGeometry relative="1" as="geometry" />
        </mxCell>
        <mxCell id="ADM8dEL3SDT1tb3Al-rz-5" style="edgeStyle=orthogonalEdgeStyle;rounded=0;orthogonalLoop=1;jettySize=auto;html=1;exitX=1;exitY=0.75;exitDx=0;exitDy=0;entryX=0;entryY=0.5;entryDx=0;entryDy=0;fontSize=17;sketch=1;" edge="1" parent="1" source="BODJYrUjNct6-EuI8a4u-12" target="BODJYrUjNct6-EuI8a4u-16">
          <mxGeometry relative="1" as="geometry" />
        </mxCell>
        <mxCell id="BODJYrUjNct6-EuI8a4u-12" value="&lt;span style=&quot;font-size: 17px&quot;&gt;Deep learning frameworks&lt;/span&gt;" style="rounded=1;whiteSpace=wrap;html=1;fillColor=#f5f5f5;strokeColor=#666666;gradientDirection=east;shadow=0;sketch=1;glass=0;fontFamily=Architects Daughter;FType=g;fontColor=#333333;" parent="1" vertex="1">
          <mxGeometry x="465" y="177" width="140" height="50" as="geometry" />
        </mxCell>
        <mxCell id="BODJYrUjNct6-EuI8a4u-13" value="" style="rounded=1;whiteSpace=wrap;html=1;fillColor=#f5f5f5;strokeColor=#666666;gradientDirection=east;shadow=0;sketch=1;glass=0;fontFamily=Architects Daughter;FType=g;fontColor=#333333;fontSize=17;" parent="1" vertex="1">
          <mxGeometry x="102.5" y="497" width="125" height="50" as="geometry" />
        </mxCell>
        <mxCell id="BODJYrUjNct6-EuI8a4u-16" value="&lt;font style=&quot;font-size: 15px;&quot;&gt;PyTorch&lt;/font&gt;" style="rounded=1;whiteSpace=wrap;html=1;fillColor=#f5f5f5;strokeColor=#666666;gradientDirection=east;shadow=0;sketch=1;glass=0;fontFamily=Architects Daughter;FType=g;fontColor=#333333;fontSize=15;" parent="1" vertex="1">
          <mxGeometry x="660" y="227" width="80" height="33" as="geometry" />
        </mxCell>
        <mxCell id="BODJYrUjNct6-EuI8a4u-17" value="&lt;font style=&quot;font-size: 15px;&quot;&gt;Tensorflow&lt;/font&gt;" style="rounded=1;whiteSpace=wrap;html=1;fillColor=#f5f5f5;strokeColor=#666666;gradientDirection=east;shadow=0;sketch=1;glass=0;fontFamily=Architects Daughter;FType=g;fontColor=#333333;fontSize=15;" parent="1" vertex="1">
          <mxGeometry x="660" y="178.5" width="110" height="33" as="geometry" />
        </mxCell>
        <mxCell id="BODJYrUjNct6-EuI8a4u-22" value="&lt;font face=&quot;Architects Daughter&quot; style=&quot;font-size: 20px&quot;&gt;Libraries&lt;/font&gt;" style="shape=document;whiteSpace=wrap;html=1;boundedLbl=1;rounded=1;shadow=0;glass=0;sketch=1;fontFamily=Helvetica;fillColor=#b1ddf0;strokeColor=#10739e;fontSize=20;" parent="1" vertex="1">
          <mxGeometry x="635" y="40" width="120" height="50" as="geometry" />
        </mxCell>
        <mxCell id="BODJYrUjNct6-EuI8a4u-25" value="Numpy" style="rounded=1;whiteSpace=wrap;html=1;fillColor=#f5f5f5;strokeColor=#666666;gradientDirection=east;shadow=0;sketch=1;glass=0;fontFamily=Architects Daughter;FType=g;fontColor=#333333;fontSize=15;" parent="1" vertex="1">
          <mxGeometry x="840" y="160" width="90" height="30" as="geometry" />
        </mxCell>
        <mxCell id="BODJYrUjNct6-EuI8a4u-27" value="OpenCV" style="rounded=1;whiteSpace=wrap;html=1;fillColor=#f5f5f5;strokeColor=#666666;gradientDirection=east;shadow=0;sketch=1;glass=0;fontFamily=Architects Daughter;FType=g;fontColor=#333333;fontSize=15;" parent="1" vertex="1">
          <mxGeometry x="840" y="120" width="90" height="30" as="geometry" />
        </mxCell>
        <mxCell id="BODJYrUjNct6-EuI8a4u-29" value="&lt;font face=&quot;Architects Daughter&quot; style=&quot;font-size: 20px&quot;&gt;Image Libraries&lt;/font&gt;" style="shape=document;whiteSpace=wrap;html=1;boundedLbl=1;rounded=1;shadow=0;glass=0;sketch=1;fontFamily=Helvetica;fillColor=#b1ddf0;strokeColor=#10739e;fontSize=20;" parent="1" vertex="1">
          <mxGeometry x="820" y="40" width="160" height="50" as="geometry" />
        </mxCell>
        <mxCell id="BODJYrUjNct6-EuI8a4u-31" value="Pillow" style="rounded=1;whiteSpace=wrap;html=1;fillColor=#e1d5e7;strokeColor=#9673a6;gradientDirection=east;shadow=0;sketch=1;glass=0;fontFamily=Architects Daughter;FType=g;fontSize=15;fontStyle=0" parent="1" vertex="1">
          <mxGeometry x="840" y="207" width="90" height="30" as="geometry" />
        </mxCell>
        <mxCell id="BODJYrUjNct6-EuI8a4u-34" value="Convolutions/CNN&lt;br&gt;Types and uses" style="rounded=1;whiteSpace=wrap;html=1;fillColor=#f5f5f5;strokeColor=#666666;gradientDirection=east;shadow=0;sketch=1;glass=0;fontFamily=Architects Daughter;FType=g;fontColor=#333333;fontSize=15;" parent="1" vertex="1">
          <mxGeometry x="280" y="277" width="170" height="50" as="geometry" />
        </mxCell>
        <mxCell id="BODJYrUjNct6-EuI8a4u-39" value="Image Classification" style="rounded=1;whiteSpace=wrap;html=1;fillColor=#f5f5f5;strokeColor=#666666;gradientDirection=east;shadow=0;sketch=1;glass=0;fontFamily=Architects Daughter;FType=g;fontColor=#333333;fontSize=15;" parent="1" vertex="1">
          <mxGeometry x="299" y="387" width="125" height="50" as="geometry" />
        </mxCell>
        <mxCell id="BODJYrUjNct6-EuI8a4u-40" value="Object Detection" style="rounded=1;whiteSpace=wrap;html=1;fillColor=#f5f5f5;strokeColor=#666666;gradientDirection=east;shadow=0;sketch=1;glass=0;fontFamily=Architects Daughter;FType=g;fontColor=#333333;fontSize=15;" parent="1" vertex="1">
          <mxGeometry x="296" y="447" width="130" height="50" as="geometry" />
        </mxCell>
        <mxCell id="BODJYrUjNct6-EuI8a4u-41" value="Object Tracking" style="rounded=1;whiteSpace=wrap;html=1;fillColor=#f5f5f5;strokeColor=#666666;gradientDirection=east;shadow=0;sketch=1;glass=0;fontFamily=Architects Daughter;FType=g;fontColor=#333333;fontSize=15;" parent="1" vertex="1">
          <mxGeometry x="295" y="507" width="135" height="50" as="geometry" />
        </mxCell>
        <mxCell id="BODJYrUjNct6-EuI8a4u-42" value="Video AI" style="rounded=1;whiteSpace=wrap;html=1;fillColor=#b1ddf0;strokeColor=#10739e;gradientDirection=east;shadow=0;sketch=1;glass=0;fontFamily=Architects Daughter;FType=g;fontSize=15;" parent="1" vertex="1">
          <mxGeometry x="496.5" y="507" width="92" height="40" as="geometry" />
        </mxCell>
        <mxCell id="BODJYrUjNct6-EuI8a4u-43" value="Image&lt;br&gt;captioning" style="rounded=1;whiteSpace=wrap;html=1;fillColor=#f5f5f5;strokeColor=#666666;gradientDirection=east;shadow=0;sketch=1;glass=0;fontFamily=Architects Daughter;FType=g;fontColor=#333333;fontSize=15;" parent="1" vertex="1">
          <mxGeometry x="478.5" y="387" width="125" height="50" as="geometry" />
        </mxCell>
        <mxCell id="BODJYrUjNct6-EuI8a4u-44" value="Recurrent/RNN&lt;br&gt;Types and uses" style="rounded=1;whiteSpace=wrap;html=1;fillColor=#f5f5f5;strokeColor=#666666;gradientDirection=east;shadow=0;sketch=1;glass=0;fontFamily=Architects Daughter;FType=g;fontColor=#333333;fontSize=15;" parent="1" vertex="1">
          <mxGeometry x="465" y="277" width="150" height="50" as="geometry" />
        </mxCell>
        <mxCell id="BODJYrUjNct6-EuI8a4u-45" value="Image&lt;br&gt;QA" style="rounded=1;whiteSpace=wrap;html=1;fillColor=#e1d5e7;strokeColor=#9673a6;gradientDirection=east;shadow=0;sketch=1;glass=0;fontFamily=Architects Daughter;FType=g;fontSize=15;" parent="1" vertex="1">
          <mxGeometry x="478.5" y="447" width="125" height="50" as="geometry" />
        </mxCell>
        <mxCell id="BODJYrUjNct6-EuI8a4u-46" value="Dataset preparation" style="rounded=1;whiteSpace=wrap;html=1;fillColor=#dae8fc;strokeColor=#6c8ebf;gradientDirection=east;shadow=0;sketch=1;glass=0;fontFamily=Architects Daughter;FType=g;fontSize=15;" parent="1" vertex="1">
          <mxGeometry x="80" y="280" width="170" height="40" as="geometry" />
        </mxCell>
        <mxCell id="BODJYrUjNct6-EuI8a4u-47" value="Augmentation" style="rounded=1;whiteSpace=wrap;html=1;fillColor=#f5f5f5;strokeColor=#666666;gradientDirection=east;shadow=0;sketch=1;glass=0;fontFamily=Architects Daughter;FType=g;fontColor=#333333;fontSize=15;" parent="1" vertex="1">
          <mxGeometry x="102.5" y="410" width="125" height="50" as="geometry" />
        </mxCell>
        <mxCell id="BODJYrUjNct6-EuI8a4u-48" value="Image AI" style="rounded=1;whiteSpace=wrap;html=1;fillColor=#b1ddf0;strokeColor=#10739e;gradientDirection=east;shadow=0;sketch=1;glass=0;fontFamily=Architects Daughter;FType=g;fontSize=15;" parent="1" vertex="1">
          <mxGeometry x="315" y="337" width="100" height="40" as="geometry" />
        </mxCell>
        <mxCell id="BODJYrUjNct6-EuI8a4u-49" value="Video captioning" style="rounded=1;whiteSpace=wrap;html=1;fillColor=#e1d5e7;strokeColor=#9673a6;gradientDirection=east;shadow=0;sketch=1;glass=0;fontFamily=Architects Daughter;FType=g;fontSize=15;" parent="1" vertex="1">
          <mxGeometry x="476" y="617" width="125" height="50" as="geometry" />
        </mxCell>
        <mxCell id="BODJYrUjNct6-EuI8a4u-50" value="Action Recognition" style="rounded=1;whiteSpace=wrap;html=1;fillColor=#f5f5f5;strokeColor=#666666;gradientDirection=east;shadow=0;sketch=1;glass=0;fontFamily=Architects Daughter;FType=g;fontColor=#333333;fontSize=15;" parent="1" vertex="1">
          <mxGeometry x="478.5" y="557" width="125" height="50" as="geometry" />
        </mxCell>
        <mxCell id="BODJYrUjNct6-EuI8a4u-52" value="Image AI" style="rounded=1;whiteSpace=wrap;html=1;fillColor=#b1ddf0;strokeColor=#10739e;gradientDirection=east;shadow=0;sketch=1;glass=0;fontFamily=Architects Daughter;FType=g;fontSize=15;" parent="1" vertex="1">
          <mxGeometry x="491" y="337" width="100" height="40" as="geometry" />
        </mxCell>
        <mxCell id="ADM8dEL3SDT1tb3Al-rz-1" value="&lt;font style=&quot;font-size: 17px&quot;&gt;Python&lt;/font&gt;" style="rounded=1;whiteSpace=wrap;html=1;fillColor=#f5f5f5;strokeColor=#666666;gradientDirection=east;shadow=0;sketch=1;glass=0;fontFamily=Architects Daughter;FType=g;fontColor=#333333;fontSize=15;" vertex="1" parent="1">
          <mxGeometry x="302.5" y="110" width="125" height="50" as="geometry" />
        </mxCell>
        <mxCell id="ADM8dEL3SDT1tb3Al-rz-3" value="JavaScript" style="rounded=1;whiteSpace=wrap;html=1;fillColor=#e1d5e7;strokeColor=#9673a6;gradientDirection=east;shadow=0;sketch=1;glass=0;fontFamily=Architects Daughter;FType=g;fontSize=15;" vertex="1" parent="1">
          <mxGeometry x="460" y="120" width="110" height="30" as="geometry" />
        </mxCell>
        <mxCell id="ADM8dEL3SDT1tb3Al-rz-4" value="&lt;b&gt;Best practices&lt;/b&gt; in labeling image data" style="rounded=1;whiteSpace=wrap;html=1;fillColor=#f5f5f5;strokeColor=#666666;gradientDirection=east;shadow=0;sketch=1;glass=0;fontFamily=Architects Daughter;FType=g;fontColor=#333333;fontSize=15;fontStyle=0" vertex="1" parent="1">
          <mxGeometry x="85" y="340" width="160" height="50" as="geometry" />
        </mxCell>
      </root>
    </mxGraphModel>
  </diagram>
</mxfile>
